<mxfile host="Electron" agent="Mozilla/5.0 (Macintosh; Intel Mac OS X 10_15_7) AppleWebKit/537.36 (KHTML, like Gecko) draw.io/26.0.9 Chrome/128.0.6613.186 Electron/32.2.5 Safari/537.36" version="26.0.9">
  <diagram name="Page-1" id="KPLoOtIkAREZE4EvZQdS">
    <mxGraphModel dx="1751" dy="2023" grid="1" gridSize="10" guides="1" tooltips="1" connect="1" arrows="1" fold="1" page="1" pageScale="1" pageWidth="827" pageHeight="1169" math="0" shadow="0">
      <root>
        <mxCell id="0" />
        <mxCell id="1" parent="0" />
        <mxCell id="svKFRJVLYX2BS5h3yiOG-100" value="Public subnet" style="points=[[0,0],[0.25,0],[0.5,0],[0.75,0],[1,0],[1,0.25],[1,0.5],[1,0.75],[1,1],[0.75,1],[0.5,1],[0.25,1],[0,1],[0,0.75],[0,0.5],[0,0.25]];outlineConnect=0;gradientColor=none;html=1;whiteSpace=wrap;fontSize=12;fontStyle=0;container=1;pointerEvents=0;collapsible=0;recursiveResize=0;shape=mxgraph.aws4.group;grIcon=mxgraph.aws4.group_security_group;grStroke=0;strokeColor=#7AA116;fillColor=#F2F6E8;verticalAlign=top;align=left;spacingLeft=30;fontColor=#248814;dashed=0;" vertex="1" parent="1">
          <mxGeometry x="-20" y="-40" width="460" height="740" as="geometry" />
        </mxCell>
        <mxCell id="svKFRJVLYX2BS5h3yiOG-45" value="Security group&lt;div&gt;&lt;ul&gt;&lt;li style=&quot;text-align: left;&quot;&gt;&lt;i&gt;&lt;font style=&quot;font-size: 10px;&quot;&gt;Egress only&lt;/font&gt;&lt;/i&gt;&lt;/li&gt;&lt;li&gt;&lt;i&gt;&lt;font style=&quot;font-size: 10px;&quot;&gt;Connection t&lt;/font&gt;&lt;/i&gt;&lt;i style=&quot;background-color: transparent; color: light-dark(rgb(221, 53, 34), rgb(255, 133, 117));&quot;&gt;&lt;font style=&quot;font-size: 10px;&quot;&gt;racked&lt;/font&gt;&lt;/i&gt;&lt;/li&gt;&lt;/ul&gt;&lt;/div&gt;" style="fillColor=none;strokeColor=#DD3522;verticalAlign=top;fontStyle=0;fontColor=#DD3522;whiteSpace=wrap;html=1;" vertex="1" parent="1">
          <mxGeometry width="430" height="450" as="geometry" />
        </mxCell>
        <mxCell id="svKFRJVLYX2BS5h3yiOG-46" value="Security group&lt;div&gt;&lt;ul&gt;&lt;li&gt;&lt;span style=&quot;background-color: transparent; color: light-dark(rgb(221, 53, 34), rgb(255, 133, 117));&quot;&gt;&lt;font style=&quot;font-size: 10px;&quot;&gt;&lt;i&gt;Transgress on 443&lt;/i&gt;&lt;/font&gt;&lt;/span&gt;&lt;/li&gt;&lt;li&gt;&lt;span style=&quot;background-color: transparent; color: light-dark(rgb(221, 53, 34), rgb(255, 133, 117));&quot;&gt;&lt;font style=&quot;font-size: 10px;&quot;&gt;&lt;i&gt;Internal transgress on 8501&lt;/i&gt;&lt;/font&gt;&lt;/span&gt;&lt;/li&gt;&lt;/ul&gt;&lt;/div&gt;" style="fillColor=none;strokeColor=#DD3522;verticalAlign=top;fontStyle=0;fontColor=#DD3522;whiteSpace=wrap;html=1;" vertex="1" parent="1">
          <mxGeometry x="40" y="480" width="200" height="210" as="geometry" />
        </mxCell>
        <mxCell id="svKFRJVLYX2BS5h3yiOG-48" value="&lt;b&gt;Load Balancer&lt;/b&gt;&lt;div&gt;Dashboard Gateway&lt;/div&gt;" style="sketch=0;points=[[0,0,0],[0.25,0,0],[0.5,0,0],[0.75,0,0],[1,0,0],[0,1,0],[0.25,1,0],[0.5,1,0],[0.75,1,0],[1,1,0],[0,0.25,0],[0,0.5,0],[0,0.75,0],[1,0.25,0],[1,0.5,0],[1,0.75,0]];outlineConnect=0;fontColor=#232F3E;fillColor=#ED7100;strokeColor=#ffffff;dashed=0;verticalLabelPosition=bottom;verticalAlign=top;align=center;html=1;fontSize=12;fontStyle=0;aspect=fixed;shape=mxgraph.aws4.resourceIcon;resIcon=mxgraph.aws4.elastic_load_balancing;" vertex="1" parent="1">
          <mxGeometry x="99" y="560" width="80" height="80" as="geometry" />
        </mxCell>
        <mxCell id="svKFRJVLYX2BS5h3yiOG-55" value="AWS Step Functions workflow" style="points=[[0,0],[0.25,0],[0.5,0],[0.75,0],[1,0],[1,0.25],[1,0.5],[1,0.75],[1,1],[0.75,1],[0.5,1],[0.25,1],[0,1],[0,0.75],[0,0.5],[0,0.25]];outlineConnect=0;gradientColor=none;html=1;whiteSpace=wrap;fontSize=12;fontStyle=0;container=1;pointerEvents=0;collapsible=0;recursiveResize=0;shape=mxgraph.aws4.group;grIcon=mxgraph.aws4.group_aws_step_functions_workflow;strokeColor=#CD2264;fillColor=none;verticalAlign=top;align=left;spacingLeft=30;fontColor=#CD2264;dashed=0;" vertex="1" parent="1">
          <mxGeometry x="10" y="260" width="260" height="180" as="geometry" />
        </mxCell>
        <mxCell id="svKFRJVLYX2BS5h3yiOG-59" style="edgeStyle=orthogonalEdgeStyle;rounded=0;orthogonalLoop=1;jettySize=auto;html=1;" edge="1" parent="svKFRJVLYX2BS5h3yiOG-55" source="svKFRJVLYX2BS5h3yiOG-51" target="svKFRJVLYX2BS5h3yiOG-42">
          <mxGeometry relative="1" as="geometry" />
        </mxCell>
        <mxCell id="svKFRJVLYX2BS5h3yiOG-60" value="Then" style="edgeLabel;html=1;align=center;verticalAlign=middle;resizable=0;points=[];" vertex="1" connectable="0" parent="svKFRJVLYX2BS5h3yiOG-59">
          <mxGeometry x="0.0377" relative="1" as="geometry">
            <mxPoint x="-2" as="offset" />
          </mxGeometry>
        </mxCell>
        <mxCell id="svKFRJVLYX2BS5h3yiOG-51" value="&lt;b&gt;ECS Task&lt;/b&gt;&lt;div&gt;&lt;i&gt;&lt;font style=&quot;font-size: 10px;&quot;&gt;Fargate&lt;/font&gt;&lt;/i&gt;&lt;/div&gt;&lt;div&gt;Update Judges&lt;/div&gt;" style="sketch=0;points=[[0,0,0],[0.25,0,0],[0.5,0,0],[0.75,0,0],[1,0,0],[0,1,0],[0.25,1,0],[0.5,1,0],[0.75,1,0],[1,1,0],[0,0.25,0],[0,0.5,0],[0,0.75,0],[1,0.25,0],[1,0.5,0],[1,0.75,0]];outlineConnect=0;fontColor=#232F3E;fillColor=#ED7100;strokeColor=#ffffff;dashed=0;verticalLabelPosition=bottom;verticalAlign=top;align=center;html=1;fontSize=12;fontStyle=0;aspect=fixed;shape=mxgraph.aws4.resourceIcon;resIcon=mxgraph.aws4.ecs;" vertex="1" parent="svKFRJVLYX2BS5h3yiOG-55">
          <mxGeometry x="25" y="31" width="80" height="80" as="geometry" />
        </mxCell>
        <mxCell id="svKFRJVLYX2BS5h3yiOG-52" value="" style="sketch=0;points=[[0,0,0],[0.25,0,0],[0.5,0,0],[0.75,0,0],[1,0,0],[0,1,0],[0.25,1,0],[0.5,1,0],[0.75,1,0],[1,1,0],[0,0.25,0],[0,0.5,0],[0,0.75,0],[1,0.25,0],[1,0.5,0],[1,0.75,0]];outlineConnect=0;fontColor=#232F3E;fillColor=#ED7100;strokeColor=#ffffff;dashed=0;verticalLabelPosition=bottom;verticalAlign=top;align=center;html=1;fontSize=12;fontStyle=0;aspect=fixed;shape=mxgraph.aws4.resourceIcon;resIcon=mxgraph.aws4.fargate;" vertex="1" parent="svKFRJVLYX2BS5h3yiOG-55">
          <mxGeometry x="25" y="93" width="18" height="18" as="geometry" />
        </mxCell>
        <mxCell id="svKFRJVLYX2BS5h3yiOG-42" value="&lt;b&gt;ECS Task&lt;/b&gt;&lt;div&gt;&lt;i&gt;&lt;font style=&quot;font-size: 10px;&quot;&gt;Fargate&lt;/font&gt;&lt;/i&gt;&lt;/div&gt;&lt;div&gt;Update Judgements&lt;/div&gt;" style="sketch=0;points=[[0,0,0],[0.25,0,0],[0.5,0,0],[0.75,0,0],[1,0,0],[0,1,0],[0.25,1,0],[0.5,1,0],[0.75,1,0],[1,1,0],[0,0.25,0],[0,0.5,0],[0,0.75,0],[1,0.25,0],[1,0.5,0],[1,0.75,0]];outlineConnect=0;fontColor=#232F3E;fillColor=#ED7100;strokeColor=#ffffff;dashed=0;verticalLabelPosition=bottom;verticalAlign=top;align=center;html=1;fontSize=12;fontStyle=0;aspect=fixed;shape=mxgraph.aws4.resourceIcon;resIcon=mxgraph.aws4.ecs;" vertex="1" parent="svKFRJVLYX2BS5h3yiOG-55">
          <mxGeometry x="158" y="31" width="80" height="80" as="geometry" />
        </mxCell>
        <mxCell id="svKFRJVLYX2BS5h3yiOG-43" value="" style="sketch=0;points=[[0,0,0],[0.25,0,0],[0.5,0,0],[0.75,0,0],[1,0,0],[0,1,0],[0.25,1,0],[0.5,1,0],[0.75,1,0],[1,1,0],[0,0.25,0],[0,0.5,0],[0,0.75,0],[1,0.25,0],[1,0.5,0],[1,0.75,0]];outlineConnect=0;fontColor=#232F3E;fillColor=#ED7100;strokeColor=#ffffff;dashed=0;verticalLabelPosition=bottom;verticalAlign=top;align=center;html=1;fontSize=12;fontStyle=0;aspect=fixed;shape=mxgraph.aws4.resourceIcon;resIcon=mxgraph.aws4.fargate;" vertex="1" parent="svKFRJVLYX2BS5h3yiOG-55">
          <mxGeometry x="158" y="93" width="18" height="18" as="geometry" />
        </mxCell>
        <mxCell id="svKFRJVLYX2BS5h3yiOG-61" value="AWS Step Functions workflow" style="points=[[0,0],[0.25,0],[0.5,0],[0.75,0],[1,0],[1,0.25],[1,0.5],[1,0.75],[1,1],[0.75,1],[0.5,1],[0.25,1],[0,1],[0,0.75],[0,0.5],[0,0.25]];outlineConnect=0;gradientColor=none;html=1;whiteSpace=wrap;fontSize=12;fontStyle=0;container=1;pointerEvents=0;collapsible=0;recursiveResize=0;shape=mxgraph.aws4.group;grIcon=mxgraph.aws4.group_aws_step_functions_workflow;strokeColor=#CD2264;fillColor=none;verticalAlign=top;align=left;spacingLeft=30;fontColor=#CD2264;dashed=0;" vertex="1" parent="1">
          <mxGeometry x="10" y="70" width="260" height="180" as="geometry" />
        </mxCell>
        <mxCell id="svKFRJVLYX2BS5h3yiOG-62" style="edgeStyle=orthogonalEdgeStyle;rounded=0;orthogonalLoop=1;jettySize=auto;html=1;" edge="1" parent="svKFRJVLYX2BS5h3yiOG-61" source="svKFRJVLYX2BS5h3yiOG-64" target="svKFRJVLYX2BS5h3yiOG-66">
          <mxGeometry relative="1" as="geometry" />
        </mxCell>
        <mxCell id="svKFRJVLYX2BS5h3yiOG-63" value="Then" style="edgeLabel;html=1;align=center;verticalAlign=middle;resizable=0;points=[];" vertex="1" connectable="0" parent="svKFRJVLYX2BS5h3yiOG-62">
          <mxGeometry x="0.0377" relative="1" as="geometry">
            <mxPoint x="-2" as="offset" />
          </mxGeometry>
        </mxCell>
        <mxCell id="svKFRJVLYX2BS5h3yiOG-64" value="&lt;b&gt;ECS Task&lt;/b&gt;&lt;div&gt;&lt;i&gt;&lt;font style=&quot;font-size: 10px;&quot;&gt;Fargate&lt;/font&gt;&lt;/i&gt;&lt;/div&gt;&lt;div&gt;Seed Judges&lt;/div&gt;" style="sketch=0;points=[[0,0,0],[0.25,0,0],[0.5,0,0],[0.75,0,0],[1,0,0],[0,1,0],[0.25,1,0],[0.5,1,0],[0.75,1,0],[1,1,0],[0,0.25,0],[0,0.5,0],[0,0.75,0],[1,0.25,0],[1,0.5,0],[1,0.75,0]];outlineConnect=0;fontColor=#232F3E;fillColor=#ED7100;strokeColor=#ffffff;dashed=0;verticalLabelPosition=bottom;verticalAlign=top;align=center;html=1;fontSize=12;fontStyle=0;aspect=fixed;shape=mxgraph.aws4.resourceIcon;resIcon=mxgraph.aws4.ecs;" vertex="1" parent="svKFRJVLYX2BS5h3yiOG-61">
          <mxGeometry x="25" y="31" width="80" height="80" as="geometry" />
        </mxCell>
        <mxCell id="svKFRJVLYX2BS5h3yiOG-65" value="" style="sketch=0;points=[[0,0,0],[0.25,0,0],[0.5,0,0],[0.75,0,0],[1,0,0],[0,1,0],[0.25,1,0],[0.5,1,0],[0.75,1,0],[1,1,0],[0,0.25,0],[0,0.5,0],[0,0.75,0],[1,0.25,0],[1,0.5,0],[1,0.75,0]];outlineConnect=0;fontColor=#232F3E;fillColor=#ED7100;strokeColor=#ffffff;dashed=0;verticalLabelPosition=bottom;verticalAlign=top;align=center;html=1;fontSize=12;fontStyle=0;aspect=fixed;shape=mxgraph.aws4.resourceIcon;resIcon=mxgraph.aws4.fargate;" vertex="1" parent="svKFRJVLYX2BS5h3yiOG-61">
          <mxGeometry x="25" y="93" width="18" height="18" as="geometry" />
        </mxCell>
        <mxCell id="svKFRJVLYX2BS5h3yiOG-66" value="&lt;b&gt;ECS Task&lt;/b&gt;&lt;div&gt;&lt;i&gt;&lt;font style=&quot;font-size: 10px;&quot;&gt;Fargate&lt;/font&gt;&lt;/i&gt;&lt;/div&gt;&lt;div&gt;Seed Judgements&lt;/div&gt;" style="sketch=0;points=[[0,0,0],[0.25,0,0],[0.5,0,0],[0.75,0,0],[1,0,0],[0,1,0],[0.25,1,0],[0.5,1,0],[0.75,1,0],[1,1,0],[0,0.25,0],[0,0.5,0],[0,0.75,0],[1,0.25,0],[1,0.5,0],[1,0.75,0]];outlineConnect=0;fontColor=#232F3E;fillColor=#ED7100;strokeColor=#ffffff;dashed=0;verticalLabelPosition=bottom;verticalAlign=top;align=center;html=1;fontSize=12;fontStyle=0;aspect=fixed;shape=mxgraph.aws4.resourceIcon;resIcon=mxgraph.aws4.ecs;" vertex="1" parent="svKFRJVLYX2BS5h3yiOG-61">
          <mxGeometry x="158" y="31" width="80" height="80" as="geometry" />
        </mxCell>
        <mxCell id="svKFRJVLYX2BS5h3yiOG-67" value="" style="sketch=0;points=[[0,0,0],[0.25,0,0],[0.5,0,0],[0.75,0,0],[1,0,0],[0,1,0],[0.25,1,0],[0.5,1,0],[0.75,1,0],[1,1,0],[0,0.25,0],[0,0.5,0],[0,0.75,0],[1,0.25,0],[1,0.5,0],[1,0.75,0]];outlineConnect=0;fontColor=#232F3E;fillColor=#ED7100;strokeColor=#ffffff;dashed=0;verticalLabelPosition=bottom;verticalAlign=top;align=center;html=1;fontSize=12;fontStyle=0;aspect=fixed;shape=mxgraph.aws4.resourceIcon;resIcon=mxgraph.aws4.fargate;" vertex="1" parent="svKFRJVLYX2BS5h3yiOG-61">
          <mxGeometry x="158" y="93" width="18" height="18" as="geometry" />
        </mxCell>
        <mxCell id="svKFRJVLYX2BS5h3yiOG-72" style="edgeStyle=orthogonalEdgeStyle;rounded=0;orthogonalLoop=1;jettySize=auto;html=1;" edge="1" parent="1" source="svKFRJVLYX2BS5h3yiOG-71" target="svKFRJVLYX2BS5h3yiOG-55">
          <mxGeometry relative="1" as="geometry" />
        </mxCell>
        <mxCell id="svKFRJVLYX2BS5h3yiOG-73" value="Triggers" style="edgeLabel;html=1;align=center;verticalAlign=middle;resizable=0;points=[];" vertex="1" connectable="0" parent="svKFRJVLYX2BS5h3yiOG-72">
          <mxGeometry x="0.0706" y="-1" relative="1" as="geometry">
            <mxPoint x="2" y="1" as="offset" />
          </mxGeometry>
        </mxCell>
        <mxCell id="svKFRJVLYX2BS5h3yiOG-71" value="EventBridge Scheduler&lt;div&gt;1/day&lt;/div&gt;" style="sketch=0;outlineConnect=0;fontColor=#232F3E;gradientColor=none;fillColor=#E7157B;strokeColor=none;dashed=0;verticalLabelPosition=bottom;verticalAlign=top;align=center;html=1;fontSize=12;fontStyle=0;aspect=fixed;pointerEvents=1;shape=mxgraph.aws4.eventbridge_scheduler;" vertex="1" parent="1">
          <mxGeometry x="330" y="311" width="78" height="78" as="geometry" />
        </mxCell>
        <mxCell id="svKFRJVLYX2BS5h3yiOG-83" style="edgeStyle=orthogonalEdgeStyle;rounded=0;orthogonalLoop=1;jettySize=auto;html=1;exitX=1;exitY=0.25;exitDx=0;exitDy=0;exitPerimeter=0;" edge="1" parent="1" source="svKFRJVLYX2BS5h3yiOG-64" target="svKFRJVLYX2BS5h3yiOG-74">
          <mxGeometry relative="1" as="geometry">
            <Array as="points">
              <mxPoint x="140" y="121" />
              <mxPoint x="140" y="90" />
              <mxPoint x="300" y="90" />
              <mxPoint x="300" y="249" />
            </Array>
          </mxGeometry>
        </mxCell>
        <mxCell id="svKFRJVLYX2BS5h3yiOG-84" style="edgeStyle=orthogonalEdgeStyle;rounded=0;orthogonalLoop=1;jettySize=auto;html=1;" edge="1" parent="1" source="svKFRJVLYX2BS5h3yiOG-66" target="svKFRJVLYX2BS5h3yiOG-74">
          <mxGeometry relative="1" as="geometry">
            <Array as="points">
              <mxPoint x="300" y="141" />
              <mxPoint x="300" y="249" />
            </Array>
          </mxGeometry>
        </mxCell>
        <mxCell id="svKFRJVLYX2BS5h3yiOG-85" style="edgeStyle=orthogonalEdgeStyle;rounded=0;orthogonalLoop=1;jettySize=auto;html=1;exitX=1;exitY=0.25;exitDx=0;exitDy=0;exitPerimeter=0;" edge="1" parent="1" source="svKFRJVLYX2BS5h3yiOG-51" target="svKFRJVLYX2BS5h3yiOG-74">
          <mxGeometry relative="1" as="geometry">
            <Array as="points">
              <mxPoint x="140" y="311" />
              <mxPoint x="140" y="280" />
              <mxPoint x="300" y="280" />
              <mxPoint x="300" y="249" />
            </Array>
          </mxGeometry>
        </mxCell>
        <mxCell id="svKFRJVLYX2BS5h3yiOG-94" style="edgeStyle=orthogonalEdgeStyle;rounded=0;orthogonalLoop=1;jettySize=auto;html=1;" edge="1" parent="1" source="svKFRJVLYX2BS5h3yiOG-89" target="svKFRJVLYX2BS5h3yiOG-42">
          <mxGeometry relative="1" as="geometry">
            <Array as="points">
              <mxPoint x="-10" y="239" />
              <mxPoint x="-10" y="430" />
              <mxPoint x="140" y="430" />
              <mxPoint x="140" y="360" />
            </Array>
          </mxGeometry>
        </mxCell>
        <mxCell id="svKFRJVLYX2BS5h3yiOG-89" value="National Archives" style="sketch=0;outlineConnect=0;fontColor=#232F3E;gradientColor=none;fillColor=#232F3D;strokeColor=none;dashed=0;verticalLabelPosition=bottom;verticalAlign=top;align=center;html=1;fontSize=12;fontStyle=0;aspect=fixed;pointerEvents=1;shape=mxgraph.aws4.globe;" vertex="1" parent="1">
          <mxGeometry x="-200" y="200" width="78" height="78" as="geometry" />
        </mxCell>
        <mxCell id="svKFRJVLYX2BS5h3yiOG-91" style="edgeStyle=orthogonalEdgeStyle;rounded=0;orthogonalLoop=1;jettySize=auto;html=1;entryX=0;entryY=0.5;entryDx=0;entryDy=0;entryPerimeter=0;" edge="1" parent="1" source="svKFRJVLYX2BS5h3yiOG-89" target="svKFRJVLYX2BS5h3yiOG-64">
          <mxGeometry relative="1" as="geometry">
            <Array as="points">
              <mxPoint x="-10" y="239" />
              <mxPoint x="-10" y="141" />
            </Array>
          </mxGeometry>
        </mxCell>
        <mxCell id="svKFRJVLYX2BS5h3yiOG-92" style="edgeStyle=orthogonalEdgeStyle;rounded=0;orthogonalLoop=1;jettySize=auto;html=1;entryX=0;entryY=0.75;entryDx=0;entryDy=0;entryPerimeter=0;" edge="1" parent="1" source="svKFRJVLYX2BS5h3yiOG-89" target="svKFRJVLYX2BS5h3yiOG-66">
          <mxGeometry relative="1" as="geometry">
            <Array as="points">
              <mxPoint x="140" y="239" />
              <mxPoint x="140" y="161" />
            </Array>
          </mxGeometry>
        </mxCell>
        <mxCell id="svKFRJVLYX2BS5h3yiOG-93" style="edgeStyle=orthogonalEdgeStyle;rounded=0;orthogonalLoop=1;jettySize=auto;html=1;entryX=0;entryY=0.5;entryDx=0;entryDy=0;entryPerimeter=0;" edge="1" parent="1" source="svKFRJVLYX2BS5h3yiOG-89" target="svKFRJVLYX2BS5h3yiOG-51">
          <mxGeometry relative="1" as="geometry">
            <Array as="points">
              <mxPoint x="-10" y="239" />
              <mxPoint x="-10" y="331" />
            </Array>
          </mxGeometry>
        </mxCell>
        <mxCell id="svKFRJVLYX2BS5h3yiOG-95" value="Read from" style="edgeLabel;html=1;align=center;verticalAlign=middle;resizable=0;points=[];" vertex="1" connectable="0" parent="svKFRJVLYX2BS5h3yiOG-93">
          <mxGeometry x="-0.689" y="2" relative="1" as="geometry">
            <mxPoint x="3" y="2" as="offset" />
          </mxGeometry>
        </mxCell>
        <mxCell id="svKFRJVLYX2BS5h3yiOG-96" value="Client" style="sketch=0;outlineConnect=0;fontColor=#232F3E;gradientColor=none;fillColor=#232F3D;strokeColor=none;dashed=0;verticalLabelPosition=bottom;verticalAlign=top;align=center;html=1;fontSize=12;fontStyle=0;aspect=fixed;pointerEvents=1;shape=mxgraph.aws4.client;" vertex="1" parent="1">
          <mxGeometry x="-200" y="561" width="78" height="76" as="geometry" />
        </mxCell>
        <mxCell id="svKFRJVLYX2BS5h3yiOG-97" value="" style="shape=link;html=1;rounded=0;entryX=0;entryY=0.5;entryDx=0;entryDy=0;entryPerimeter=0;" edge="1" parent="1" source="svKFRJVLYX2BS5h3yiOG-96" target="svKFRJVLYX2BS5h3yiOG-48">
          <mxGeometry width="100" relative="1" as="geometry">
            <mxPoint x="189" y="610" as="sourcePoint" />
            <mxPoint x="589" y="609" as="targetPoint" />
          </mxGeometry>
        </mxCell>
        <mxCell id="svKFRJVLYX2BS5h3yiOG-98" value="Connects to" style="edgeLabel;html=1;align=center;verticalAlign=middle;resizable=0;points=[];" vertex="1" connectable="0" parent="svKFRJVLYX2BS5h3yiOG-97">
          <mxGeometry x="0.0389" y="1" relative="1" as="geometry">
            <mxPoint x="-73" as="offset" />
          </mxGeometry>
        </mxCell>
        <mxCell id="svKFRJVLYX2BS5h3yiOG-101" value="VPC" style="points=[[0,0],[0.25,0],[0.5,0],[0.75,0],[1,0],[1,0.25],[1,0.5],[1,0.75],[1,1],[0.75,1],[0.5,1],[0.25,1],[0,1],[0,0.75],[0,0.5],[0,0.25]];outlineConnect=0;gradientColor=none;html=1;whiteSpace=wrap;fontSize=12;fontStyle=0;container=1;pointerEvents=0;collapsible=0;recursiveResize=0;shape=mxgraph.aws4.group;grIcon=mxgraph.aws4.group_vpc2;strokeColor=#8C4FFF;fillColor=none;verticalAlign=top;align=left;spacingLeft=30;fontColor=#AAB7B8;dashed=0;" vertex="1" parent="1">
          <mxGeometry x="-30" y="-80" width="800" height="790" as="geometry" />
        </mxCell>
        <mxCell id="svKFRJVLYX2BS5h3yiOG-102" value="AWS Cloud" style="points=[[0,0],[0.25,0],[0.5,0],[0.75,0],[1,0],[1,0.25],[1,0.5],[1,0.75],[1,1],[0.75,1],[0.5,1],[0.25,1],[0,1],[0,0.75],[0,0.5],[0,0.25]];outlineConnect=0;gradientColor=none;html=1;whiteSpace=wrap;fontSize=12;fontStyle=0;container=1;pointerEvents=0;collapsible=0;recursiveResize=0;shape=mxgraph.aws4.group;grIcon=mxgraph.aws4.group_aws_cloud;strokeColor=#232F3E;fillColor=none;verticalAlign=top;align=left;spacingLeft=30;fontColor=#232F3E;dashed=0;" vertex="1" parent="1">
          <mxGeometry x="-40" y="-120" width="820" height="840" as="geometry" />
        </mxCell>
        <mxCell id="svKFRJVLYX2BS5h3yiOG-99" value="Private subnet" style="points=[[0,0],[0.25,0],[0.5,0],[0.75,0],[1,0],[1,0.25],[1,0.5],[1,0.75],[1,1],[0.75,1],[0.5,1],[0.25,1],[0,1],[0,0.75],[0,0.5],[0,0.25]];outlineConnect=0;gradientColor=none;html=1;whiteSpace=wrap;fontSize=12;fontStyle=0;container=1;pointerEvents=0;collapsible=0;recursiveResize=0;shape=mxgraph.aws4.group;grIcon=mxgraph.aws4.group_security_group;grStroke=0;strokeColor=#00A4A6;fillColor=#E6F6F7;verticalAlign=top;align=left;spacingLeft=30;fontColor=#147EBA;dashed=0;" vertex="1" parent="svKFRJVLYX2BS5h3yiOG-102">
          <mxGeometry x="520" y="80" width="280" height="740" as="geometry" />
        </mxCell>
        <mxCell id="svKFRJVLYX2BS5h3yiOG-75" value="Security group&lt;div&gt;&lt;ul&gt;&lt;li&gt;&lt;font style=&quot;font-size: 10px;&quot;&gt;&lt;i&gt;Internally Permissive&lt;/i&gt;&lt;/font&gt;&lt;/li&gt;&lt;/ul&gt;&lt;/div&gt;" style="fillColor=none;strokeColor=#DD3522;verticalAlign=top;fontStyle=0;fontColor=#DD3522;whiteSpace=wrap;html=1;" vertex="1" parent="svKFRJVLYX2BS5h3yiOG-99">
          <mxGeometry x="20" y="198" width="200" height="182" as="geometry" />
        </mxCell>
        <mxCell id="svKFRJVLYX2BS5h3yiOG-50" value="Security group&lt;div&gt;&lt;ul&gt;&lt;li&gt;&lt;span style=&quot;background-color: transparent; color: light-dark(rgb(221, 53, 34), rgb(255, 133, 117));&quot;&gt;&lt;font style=&quot;font-size: 10px;&quot;&gt;&lt;i&gt;Transgress on 5432&lt;/i&gt;&lt;/font&gt;&lt;/span&gt;&lt;/li&gt;&lt;li&gt;&lt;span style=&quot;background-color: transparent; color: light-dark(rgb(221, 53, 34), rgb(255, 133, 117));&quot;&gt;&lt;font style=&quot;font-size: 10px;&quot;&gt;&lt;i&gt;Transgress on 8501&lt;/i&gt;&lt;/font&gt;&lt;/span&gt;&lt;/li&gt;&lt;/ul&gt;&lt;/div&gt;" style="fillColor=none;strokeColor=#DD3522;verticalAlign=top;fontStyle=0;fontColor=#DD3522;whiteSpace=wrap;html=1;" vertex="1" parent="svKFRJVLYX2BS5h3yiOG-99">
          <mxGeometry x="40" y="520" width="160" height="210" as="geometry" />
        </mxCell>
        <mxCell id="svKFRJVLYX2BS5h3yiOG-47" value="&lt;b&gt;ECS Service&lt;/b&gt;&lt;div&gt;&lt;i&gt;&lt;font style=&quot;font-size: 10px;&quot;&gt;EC2&lt;/font&gt;&lt;/i&gt;&lt;/div&gt;&lt;div&gt;Streamlit Dashboard&lt;/div&gt;" style="sketch=0;points=[[0,0,0],[0.25,0,0],[0.5,0,0],[0.75,0,0],[1,0,0],[0,1,0],[0.25,1,0],[0.5,1,0],[0.75,1,0],[1,1,0],[0,0.25,0],[0,0.5,0],[0,0.75,0],[1,0.25,0],[1,0.5,0],[1,0.75,0]];outlineConnect=0;fontColor=#232F3E;fillColor=#ED7100;strokeColor=#ffffff;dashed=0;verticalLabelPosition=bottom;verticalAlign=top;align=center;html=1;fontSize=12;fontStyle=0;aspect=fixed;shape=mxgraph.aws4.resourceIcon;resIcon=mxgraph.aws4.ecs;" vertex="1" parent="svKFRJVLYX2BS5h3yiOG-99">
          <mxGeometry x="79" y="598" width="82" height="82" as="geometry" />
        </mxCell>
        <mxCell id="svKFRJVLYX2BS5h3yiOG-70" value="" style="sketch=0;points=[[0,0,0],[0.25,0,0],[0.5,0,0],[0.75,0,0],[1,0,0],[0,1,0],[0.25,1,0],[0.5,1,0],[0.75,1,0],[1,1,0],[0,0.25,0],[0,0.5,0],[0,0.75,0],[1,0.25,0],[1,0.5,0],[1,0.75,0]];outlineConnect=0;fontColor=#232F3E;fillColor=#ED7100;strokeColor=#ffffff;dashed=0;verticalLabelPosition=bottom;verticalAlign=top;align=center;html=1;fontSize=12;fontStyle=0;aspect=fixed;shape=mxgraph.aws4.resourceIcon;resIcon=mxgraph.aws4.ec2;" vertex="1" parent="svKFRJVLYX2BS5h3yiOG-99">
          <mxGeometry x="79" y="661" width="19" height="19" as="geometry" />
        </mxCell>
        <mxCell id="svKFRJVLYX2BS5h3yiOG-81" style="edgeStyle=orthogonalEdgeStyle;rounded=0;orthogonalLoop=1;jettySize=auto;html=1;" edge="1" parent="svKFRJVLYX2BS5h3yiOG-99" source="svKFRJVLYX2BS5h3yiOG-74" target="svKFRJVLYX2BS5h3yiOG-47">
          <mxGeometry relative="1" as="geometry">
            <Array as="points">
              <mxPoint x="270" y="289" />
              <mxPoint x="270" y="639" />
            </Array>
          </mxGeometry>
        </mxCell>
        <mxCell id="svKFRJVLYX2BS5h3yiOG-82" value="Reads from" style="edgeLabel;html=1;align=center;verticalAlign=middle;resizable=0;points=[];" vertex="1" connectable="0" parent="svKFRJVLYX2BS5h3yiOG-81">
          <mxGeometry x="0.7805" relative="1" as="geometry">
            <mxPoint x="9" as="offset" />
          </mxGeometry>
        </mxCell>
        <mxCell id="svKFRJVLYX2BS5h3yiOG-74" value="PostgreSQL Database&lt;div&gt;RDS&lt;/div&gt;&lt;div&gt;Judges and Judgements Data&lt;/div&gt;" style="sketch=0;outlineConnect=0;fontColor=#232F3E;gradientColor=none;fillColor=#C925D1;strokeColor=none;dashed=0;verticalLabelPosition=bottom;verticalAlign=top;align=center;html=1;fontSize=12;fontStyle=0;aspect=fixed;pointerEvents=1;shape=mxgraph.aws4.rds_postgresql_instance;" vertex="1" parent="svKFRJVLYX2BS5h3yiOG-99">
          <mxGeometry x="82" y="250" width="78" height="78" as="geometry" />
        </mxCell>
        <mxCell id="svKFRJVLYX2BS5h3yiOG-86" style="edgeStyle=orthogonalEdgeStyle;rounded=0;orthogonalLoop=1;jettySize=auto;html=1;exitX=1;exitY=0.5;exitDx=0;exitDy=0;exitPerimeter=0;" edge="1" parent="1" source="svKFRJVLYX2BS5h3yiOG-42" target="svKFRJVLYX2BS5h3yiOG-74">
          <mxGeometry relative="1" as="geometry">
            <Array as="points">
              <mxPoint x="300" y="331" />
              <mxPoint x="300" y="249" />
            </Array>
          </mxGeometry>
        </mxCell>
        <mxCell id="svKFRJVLYX2BS5h3yiOG-88" value="Write to" style="edgeLabel;html=1;align=center;verticalAlign=middle;resizable=0;points=[];" vertex="1" connectable="0" parent="svKFRJVLYX2BS5h3yiOG-86">
          <mxGeometry x="0.1922" y="2" relative="1" as="geometry">
            <mxPoint x="58" y="2" as="offset" />
          </mxGeometry>
        </mxCell>
        <mxCell id="svKFRJVLYX2BS5h3yiOG-79" value="" style="shape=link;html=1;rounded=0;exitX=1;exitY=0.5;exitDx=0;exitDy=0;exitPerimeter=0;" edge="1" parent="1" source="svKFRJVLYX2BS5h3yiOG-48" target="svKFRJVLYX2BS5h3yiOG-47">
          <mxGeometry width="100" relative="1" as="geometry">
            <mxPoint x="190" y="550" as="sourcePoint" />
            <mxPoint x="290" y="550" as="targetPoint" />
          </mxGeometry>
        </mxCell>
        <mxCell id="svKFRJVLYX2BS5h3yiOG-80" value="Connects to" style="edgeLabel;html=1;align=center;verticalAlign=middle;resizable=0;points=[];" vertex="1" connectable="0" parent="svKFRJVLYX2BS5h3yiOG-79">
          <mxGeometry x="0.0389" y="1" relative="1" as="geometry">
            <mxPoint x="8" as="offset" />
          </mxGeometry>
        </mxCell>
      </root>
    </mxGraphModel>
  </diagram>
</mxfile>
